<svg width="48" height="48" viewBox="0 0 48 48" fill="none" xmlns="http://www.w3.org/2000/svg">
<path d="M48 24C48 37.2548 37.2548 48 24 48C10.7452 48 0 37.2548 0 24C0 10.7452 10.7452 0 24 0C37.2548 0 48 10.7452 48 24Z" fill="#BB90FE"/>
<circle opacity="0.5" cx="37.5483" cy="17.8064" r="3.48387" fill="#A52EFA"/>
<ellipse opacity="0.5" cx="10.8389" cy="17.8064" rx="3.48387" ry="3.48387" fill="#A52EFA"/>
<path d="M26.0995 7.95588C26.4192 7.93098 26.6987 8.17001 26.7236 8.48965C26.8099 9.59764 27.2906 10.6381 28.0785 11.422C28.8663 12.2058 29.9092 12.6814 31.0176 12.7621C31.3374 12.7854 31.5777 13.0634 31.5544 13.3832C31.5311 13.703 31.2531 13.9432 30.9333 13.92C29.5478 13.8191 28.2441 13.2251 27.2593 12.2453C26.2745 11.2655 25.6736 9.96498 25.5657 8.58C25.5408 8.26034 25.7799 7.98087 26.0995 7.95588Z" fill="black"/>
<path d="M21.9005 7.95588C21.5808 7.93098 21.3013 8.17001 21.2764 8.48965C21.1901 9.59764 20.7094 10.6381 19.9215 11.422C19.1337 12.2058 18.0908 12.6814 16.9824 12.7621C16.6626 12.7854 16.4223 13.0634 16.4456 13.3832C16.4689 13.703 16.7469 13.9432 17.0667 13.92C18.4522 13.8191 19.7559 13.2251 20.7407 12.2453C21.7255 11.2655 22.3264 9.96498 22.4343 8.58C22.4592 8.26034 22.2201 7.98087 21.9005 7.95588Z" fill="black"/>
<path opacity="0.8" d="M11.6128 28.2581C11.6128 21.4169 17.1587 15.871 23.9999 15.871C30.8411 15.871 36.387 21.4169 36.387 28.2581C36.387 31.4649 33.7873 34.0645 30.5805 34.0645H17.4192C14.2124 34.0645 11.6128 31.4649 11.6128 28.2581Z" fill="#7B2AF3"/>
<path d="M23.8065 23.6129C28.4029 23.6129 32.129 27.3391 32.129 31.9355C32.129 32.618 32.0459 33.2812 31.8909 33.916C31.4698 34.0131 31.0312 34.0645 30.5807 34.0645H17.4194C16.8187 34.0645 16.2394 33.973 15.6944 33.8037C15.5567 33.2031 15.4839 32.5778 15.4839 31.9355C15.4839 27.3391 19.21 23.6129 23.8065 23.6129Z" fill="#CFB0FF"/>
</svg>
