<svg width="48" height="48" viewBox="0 0 48 48" fill="none" xmlns="http://www.w3.org/2000/svg">
<rect width="48" height="48" rx="12" fill="#FEF1F8"/>
<path d="M21.1202 23.9772C21.1202 22.3894 22.4096 21.1023 24.0002 21.1023C25.5908 21.1023 26.8802 22.3894 26.8802 23.9772C26.8802 24.7784 26.5518 25.5031 26.0221 26.0244C25.9563 26.069 25.895 26.1225 25.8399 26.1848L25.8268 26.2C25.3298 26.6075 24.6936 26.8521 24.0002 26.8521C22.4096 26.8521 21.1202 25.5649 21.1202 23.9772Z" fill="#F93B93"/>
<path fill-rule="evenodd" clip-rule="evenodd" d="M33.5729 27.5484C34.4784 26.8799 35.6303 26.8599 36.3222 27.4485C36.6336 26.3447 36.8002 25.1804 36.8002 23.9772C36.8002 21.4497 36.065 19.0936 34.7964 17.1103L33.6385 18.2662C33.2636 18.6404 32.6558 18.6404 32.2809 18.2662C31.9059 17.892 31.9059 17.2852 32.2809 16.911L33.5609 15.6332C33.5849 15.6093 33.6099 15.5868 33.6357 15.5659C31.2894 12.8899 27.8425 11.2 24.0002 11.2C21.4682 11.2 19.1079 11.9338 17.1211 13.2001L18.2785 14.3555C18.6534 14.7297 18.6534 15.3365 18.2785 15.7107C17.9036 16.085 17.2958 16.085 16.9209 15.7107L15.6409 14.433C15.617 14.4092 15.5947 14.3845 15.5739 14.3589C12.8932 16.7009 11.2002 20.1417 11.2002 23.9772C11.2002 24.3405 11.2154 24.7003 11.2452 25.056C11.5221 25.2521 11.8647 25.4811 12.2486 25.7093C13.2965 26.3324 14.4923 26.8521 15.4649 26.8521C16.1256 26.8521 17.056 26.6133 18.008 26.243C18.5462 26.0337 19.0522 25.7977 19.4731 25.5736C19.2964 25.0743 19.2002 24.5369 19.2002 23.9772C19.2002 21.3309 21.3492 19.1857 24.0002 19.1857C26.6512 19.1857 28.8002 21.3309 28.8002 23.9772C28.8002 24.9702 28.4976 25.8926 27.9794 26.6576C28.1256 26.7541 28.2854 26.8584 28.4558 26.9696L28.6722 27.1109C29.2831 27.51 30.0325 28.0047 30.439 28.4104C30.4558 28.4272 30.4718 28.4444 30.487 28.462C31.0952 28.537 31.64 28.8205 31.9995 29.3058L32.352 29.7816C32.3918 29.8353 32.4702 29.8411 32.5176 29.7939C32.5426 29.7689 32.5538 29.7334 32.5491 29.6984C32.4482 28.9502 32.8216 28.103 33.5729 27.5484ZM29.6957 14.2665C30.1198 14.584 30.2058 15.1847 29.8877 15.6081L27.9677 18.1635C27.6496 18.5869 27.0478 18.6728 26.6237 18.3552C26.1995 18.0377 26.1136 17.437 26.4317 17.0136L28.3517 14.4581C28.6698 14.0347 29.2715 13.9489 29.6957 14.2665ZM22.0409 13.0778C21.666 13.452 21.666 14.0588 22.0409 14.433L23.3209 15.7107C23.6958 16.085 24.3036 16.085 24.6785 15.7107C25.0534 15.3365 25.0534 14.7297 24.6785 14.3555L23.3985 13.0778C23.0236 12.7035 22.4158 12.7035 22.0409 13.0778ZM19.4039 18.3043C19.5411 18.8155 20.0675 19.1189 20.5796 18.9819L22.3281 18.5142C22.8403 18.3772 23.1442 17.8518 23.007 17.3405C22.8697 16.8293 22.3433 16.526 21.8312 16.6629L20.0827 17.1306C19.5706 17.2676 19.2667 17.7931 19.4039 18.3043ZM16.1877 17.8104C15.705 18.0294 15.4916 18.5976 15.711 19.0794L16.4601 20.7244C16.6795 21.2062 17.2486 21.4192 17.7313 21.2002C18.2139 20.9812 18.4274 20.4131 18.208 19.9313L17.4589 18.2863C17.2395 17.8045 16.6703 17.5914 16.1877 17.8104ZM30.0814 22.8763C30.611 22.8515 31.0201 22.4028 30.9953 21.8741L30.9103 20.0691C30.8854 19.5405 30.4359 19.132 29.9063 19.1569C29.3767 19.1817 28.9675 19.6304 28.9924 20.1591L29.0774 21.9641C29.1023 22.4928 29.5518 22.9012 30.0814 22.8763ZM32.2388 24.052C32.5892 24.4492 33.1958 24.4876 33.5937 24.1378L35.7416 22.2495C36.1395 21.8997 36.178 21.2942 35.8276 20.897C35.4772 20.4998 34.8706 20.4614 34.4727 20.8112L32.3247 22.6995C31.9268 23.0493 31.8884 23.6548 32.2388 24.052ZM17.5267 22.565C17.9545 22.8776 18.0475 23.4772 17.7344 23.9043L16.6653 25.3625C16.3521 25.7895 15.7515 25.8824 15.3236 25.5698C14.8958 25.2572 14.8028 24.6576 15.1159 24.2305L16.185 22.7724C16.4981 22.3453 17.0988 22.2524 17.5267 22.565ZM13.1997 19.1077C12.6704 19.1372 12.2651 19.5894 12.2946 20.1179L12.3953 21.922C12.4248 22.4505 12.8779 22.855 13.4072 22.8255C13.9366 22.7961 14.3418 22.3439 14.3123 21.8154L14.2117 20.0113C14.1822 19.4828 13.7291 19.0783 13.1997 19.1077Z" fill="#F93B93"/>
<path opacity="0.5" d="M24.318 36.2292C24.0725 35.4052 24.3471 34.3741 25.1681 33.768C25.7983 33.3028 26.5479 33.1516 27.1787 33.3012C27.2615 33.3208 27.35 33.3002 27.4102 33.2401C27.4902 33.1603 27.4996 33.034 27.4324 32.9432L27.3122 32.7811C26.5295 31.7245 26.92 30.1092 28.1824 29.1592C27.9988 29.0344 27.796 28.9003 27.5802 28.7592L27.3519 28.6105C27.0783 28.4325 26.7913 28.2457 26.5324 28.0679C25.7888 28.54 24.9063 28.8135 23.9598 28.8135C22.5606 28.8135 21.3013 28.2159 20.4239 27.2625C19.9029 27.5449 19.2933 27.8291 18.6648 28.0736C17.6397 28.4724 16.4438 28.8135 15.4245 28.8135C14.1049 28.8135 12.7438 28.2431 11.6875 27.6647C13.2585 32.9467 18.1584 36.7993 23.9598 36.7993C24.2329 36.7993 24.3958 36.4904 24.318 36.2292Z" fill="#F93B93"/>
<path d="M29.5996 31.2043L33.5987 33.5038L37.5952 31.2L35.2957 35.199L37.5996 39.1956L33.6005 36.8961L29.604 39.2L31.9035 35.2009L29.5996 31.2043Z" fill="#F93B93"/>
<path opacity="0.5" d="M34.4004 10.4017L36 11.3215L37.5986 10.3999L36.6788 11.9995L37.6004 13.5981L36.0008 12.6784L34.4021 13.5999L35.3219 12.0003L34.4004 10.4017Z" fill="#F93B93"/>
<path opacity="0.5" d="M8.7998 8.80268L11.1992 10.1824L13.5972 8.80005L12.2175 11.1995L13.5998 13.5974L11.2004 12.2177L8.80244 13.6L10.1821 11.2006L8.7998 8.80268Z" fill="#F93B93"/>
</svg>
