<svg width="16" height="16" viewBox="0 0 16 16" fill="none" xmlns="http://www.w3.org/2000/svg">
<path d="M9.53249 0.334739C9.99534 -0.11158 10.7456 -0.11158 11.2084 0.334739C11.6713 0.781057 11.6713 1.50451 11.2084 1.95083L5.28242 7.66517C5.06015 7.8795 4.75878 8 4.44444 8C4.13011 8 3.82873 7.8795 3.60646 7.66517L1.23605 5.37944C0.773203 4.93312 0.773203 4.20967 1.23605 3.76335C1.69891 3.31703 2.44916 3.31703 2.91201 3.76335L4.44444 5.24104L9.53249 0.334739Z" fill="#ED6009"/>
<path d="M1.11116 13.7778C0.497512 13.7778 5.05447e-05 14.2753 5.05447e-05 14.8889C5.05447e-05 15.5026 0.497512 16.0001 1.11116 16.0001H14.8889C15.5025 16.0001 16 15.5026 16 14.8889C16 14.2753 15.5025 13.7778 14.8889 13.7778L1.11116 13.7778Z" fill="#ED6009"/>
<path d="M1.11116 9.33325C0.497512 9.33325 5.05447e-05 9.83071 5.05447e-05 10.4444C5.05447e-05 11.058 0.497512 11.5555 1.11116 11.5555L14.8889 11.5555C15.5025 11.5555 16 11.058 16 10.4444C16 9.83071 15.5025 9.33325 14.8889 9.33325L1.11116 9.33325Z" fill="#ED6009"/>
<path d="M12.6667 4.88892C12.0531 4.88892 11.5556 5.38638 11.5556 6.00003C11.5556 6.61368 12.0531 7.11114 12.6667 7.11114H14.8889C15.5025 7.11114 16 6.61368 16 6.00003C16 5.38638 15.5025 4.88892 14.8889 4.88892L12.6667 4.88892Z" fill="#ED6009"/>
</svg>
