<svg width="48" height="48" viewBox="0 0 48 48" fill="none" xmlns="http://www.w3.org/2000/svg">
<path d="M19.4558 3.18206C21.5245 -0.188779 26.3672 -0.188779 28.436 3.18206L33.0304 10.668C33.5156 11.4586 34.2865 12.026 35.1787 12.2492L43.6261 14.3625C47.4299 15.3141 48.9264 19.98 46.4012 23.0149L40.7932 29.7547C40.2009 30.4666 39.9065 31.3847 39.9726 32.3133L40.5991 41.1053C40.8812 45.0643 36.9634 47.9479 33.3339 46.4528L25.2737 43.1323C24.4223 42.7816 23.4695 42.7816 22.6181 43.1323L14.5579 46.4528C10.9284 47.9479 7.01061 45.0643 7.2927 41.1053L7.91914 32.3133C7.98531 31.3847 7.69086 30.4666 7.09854 29.7547L1.49059 23.0149C-1.03462 19.98 0.461856 15.3141 4.26565 14.3625L12.7131 12.2492C13.6053 12.026 14.3762 11.4586 14.8614 10.668L19.4558 3.18206Z" fill="#FCD755"/>
<path d="M29.496 18.4817C30.6483 18.4817 31.6069 19.637 31.8074 21.1613C31.8502 21.4871 31.5829 21.755 31.2585 21.755H27.7336C27.4092 21.755 27.1418 21.4871 27.1847 21.1613C27.3852 19.6369 28.3438 18.4817 29.496 18.4817Z" fill="#3B3A40"/>
<path d="M18.6274 18.4817C19.7796 18.4817 20.7382 19.637 20.9387 21.1613C20.9816 21.4871 20.7143 21.755 20.3898 21.755H16.865C16.5405 21.755 16.2732 21.4871 16.3161 21.1613C16.5166 19.6369 17.4751 18.4817 18.6274 18.4817Z" fill="#3B3A40"/>
<g opacity="0.5">
<path d="M13.9279 21.4575C15.5501 21.4575 16.8653 22.7898 16.8653 24.4332C16.8653 26.0766 15.5501 27.4089 13.9279 27.409C12.3056 27.409 10.9902 26.0767 10.9902 24.4332C10.9902 22.7898 12.3056 21.4575 13.9279 21.4575Z" fill="#FE64B0"/>
<path d="M34.7832 21.4575C36.4054 21.4575 37.7206 22.7898 37.7206 24.4332C37.7206 26.0766 36.4054 27.4089 34.7832 27.409C33.161 27.409 31.8459 26.0767 31.8459 24.4332C31.8459 22.7898 33.161 21.4575 34.7832 21.4575Z" fill="#FE64B0"/>
</g>
<path opacity="0.8" d="M33.6082 23.2429C34.2571 23.2429 34.7894 23.7773 34.7222 24.4312C34.467 26.9143 33.4174 29.2456 31.7289 31.0284C29.7734 33.0932 27.121 34.2532 24.3554 34.2532C21.5899 34.2532 18.9375 33.0932 16.982 31.0284C15.2935 29.2456 14.2439 26.9143 13.9886 24.4312C13.9214 23.7773 14.4538 23.2429 15.1027 23.2429L33.6082 23.2429Z" fill="#E9196F"/>
<path d="M24.4268 28.3465C26.9316 28.3465 29.0415 30.1146 29.6914 32.5272C28.08 33.5598 26.2175 34.1219 24.2988 34.1219C22.466 34.1218 20.6854 33.6077 19.125 32.6619C19.7312 30.1804 21.8753 28.3465 24.4268 28.3465Z" fill="#FE64B0"/>
</svg>
