<svg width="88" height="88" viewBox="0 0 88 88" fill="none" xmlns="http://www.w3.org/2000/svg">
<path opacity="0.5" d="M33.1907 16.5C33 18.618 33 21.2797 33 24.6467V63.3532C33 66.7203 33 69.382 33.1907 71.5H29.3333C20.6909 71.5 16.3697 71.5 13.6849 68.8151C11 66.1303 11 61.8091 11 53.1667V34.8333C11 26.1909 11 21.8697 13.6849 19.1849C16.3697 16.5 20.6909 16.5 29.3333 16.5H33.1907Z" fill="#9C5CFF"/>
<path fill-rule="evenodd" clip-rule="evenodd" d="M35.5933 8.83205C33 11.131 33 15.3363 33 23.747V64.2533C33 72.664 33 76.8693 35.5933 79.1683C38.1865 81.4672 42.1503 80.7759 50.0779 79.3932L58.6168 77.9039C67.3966 76.3725 71.7864 75.6068 74.3932 72.3866C77 69.1663 77 64.5089 77 55.1941V32.8062C77 23.4915 77 18.8341 74.3932 15.6138C71.7864 12.3935 67.3966 11.6278 58.6168 10.0965L50.0779 8.60713C42.1503 7.22443 38.1865 6.53308 35.5933 8.83205ZM46.75 40.163C46.75 38.5736 45.5188 37.2852 44 37.2852C42.4812 37.2852 41.25 38.5736 41.25 40.163V47.8374C41.25 49.4268 42.4812 50.7152 44 50.7152C45.5188 50.7152 46.75 49.4268 46.75 47.8374V40.163Z" fill="#9C5CFF"/>
</svg>
