<svg width="20" height="20" viewBox="0 0 20 20" fill="none" xmlns="http://www.w3.org/2000/svg">
<path fill-rule="evenodd" clip-rule="evenodd" d="M1.33828 5.06759C1.76131 4.8863 2.2512 5.08226 2.4325 5.50528L1.66655 5.83355C2.4325 5.50528 2.43262 5.50555 2.4325 5.50528L2.43207 5.50428C2.43184 5.50374 2.43201 5.50413 2.43207 5.50428L2.43533 5.51167C2.43867 5.51918 2.44441 5.53195 2.45257 5.54961C2.4689 5.58497 2.49489 5.63986 2.53072 5.71152C2.60244 5.85496 2.7132 6.06476 2.86439 6.31877C3.16773 6.82837 3.62858 7.50708 4.25637 8.18317C4.40435 8.34253 4.56095 8.50112 4.72636 8.65692C4.73327 8.66321 4.74011 8.66963 4.74686 8.67618C5.9841 9.83471 7.71014 10.8335 9.99988 10.8335C11.0073 10.8335 11.8985 10.6412 12.684 10.332C13.7057 9.9299 14.562 9.32448 15.2629 8.66664C16.0543 7.92386 16.6355 7.12525 17.0193 6.50938C17.2104 6.20264 17.3505 5.94453 17.4415 5.76612C17.4869 5.67701 17.52 5.60807 17.5409 5.56322C17.5513 5.5408 17.5587 5.52444 17.5631 5.51461L17.5673 5.50528C17.7487 5.08249 18.2386 4.88634 18.6615 5.06759C19.0845 5.24889 19.2805 5.73879 19.0992 6.16181L18.3332 5.83355C19.0992 6.16181 19.0992 6.16162 19.0992 6.16181L19.0974 6.166L19.0944 6.17285L19.0849 6.19439C19.0769 6.21216 19.0658 6.23669 19.0514 6.26747C19.0227 6.32902 18.9811 6.41567 18.9262 6.52333C18.8165 6.73846 18.6532 7.03861 18.4338 7.39078C18.0983 7.92924 17.6266 8.59704 17.0079 9.27045L17.6725 9.93499C17.9979 10.2604 17.9979 10.7881 17.6725 11.1135C17.347 11.4389 16.8194 11.4389 16.494 11.1135L15.7938 10.4134C15.3236 10.7931 14.7974 11.1514 14.213 11.4604L14.865 12.4624C15.116 12.8482 15.0068 13.3644 14.621 13.6154C14.2353 13.8664 13.7191 13.7571 13.4681 13.3714L12.6468 12.1093C12.081 12.2827 11.4766 12.4056 10.8332 12.4633V13.7502C10.8332 14.2105 10.4601 14.5835 9.99988 14.5835C9.53964 14.5835 9.16655 14.2105 9.16655 13.7502V12.4634C8.52101 12.4057 7.9167 12.2825 7.3527 12.1096L6.5317 13.3714C6.28069 13.7571 5.76449 13.8664 5.37872 13.6154C4.99296 13.3644 4.88372 12.8482 5.13473 12.4624L5.78673 11.4604C5.2033 11.1516 4.67696 10.7934 4.20614 10.4132L3.5058 11.1135C3.18037 11.4389 2.65273 11.4389 2.32729 11.1135C2.00185 10.7881 2.00185 10.2604 2.32729 9.93499L2.99183 9.27045C2.28766 8.50399 1.77302 7.74374 1.43224 7.17124C1.25792 6.87838 1.12779 6.63245 1.04001 6.45688C0.996081 6.36903 0.962661 6.2986 0.93952 6.2485C0.927947 6.22345 0.918936 6.20346 0.912459 6.18889L0.904639 6.17115L0.902145 6.16542L0.901251 6.16335L0.900893 6.16251C0.900738 6.16215 0.900593 6.16181 1.66655 5.83355L0.900893 6.16251C0.719596 5.73949 0.915256 5.24889 1.33828 5.06759Z" fill="#6D6B76"/>
</svg>
