<svg width="48" height="48" viewBox="0 0 48 48" fill="none" xmlns="http://www.w3.org/2000/svg">
<path d="M46.1318 34C46.9794 22.9615 39.6814 10.8459 36.7194 10.173C33.7574 9.50009 31.3496 16.5 31.3496 16.5C31.3496 16.5 26.5117 4.24994 21.8028 4.51917C17.0938 4.78841 11.1865 21.7499 11.1865 21.7499C11.1865 21.7499 8.37009 17.8461 5.94549 18.5192C3.52089 19.1922 1.24737 22.9615 1.91929 34.5384C2.59121 46.1153 11.1865 47.9999 11.1865 47.9999H35.1068C35.1068 47.9999 45.2841 45.0384 46.1318 34Z" fill="#FE7302"/>
<path d="M36.0502 36.9613C36.4864 31.3572 33.946 26.6675 32.4219 26.3259C30.8979 25.9842 28.6592 29.8259 28.6592 29.8259C28.6592 29.8259 25.2996 21.7175 22.3431 21.8852C19.3867 22.0528 16.2959 32.6525 16.2959 32.6525C16.2959 32.6525 13.0675 29.8259 11.592 30.23C10.1164 30.6342 9.91663 36.2566 11.5919 38.98C13.2672 41.7034 16.699 44.0969 18.8491 44.6339C20.9993 45.1708 28.6591 44.6339 28.6591 44.6339C28.6591 44.6339 35.6141 42.5654 36.0502 36.9613Z" fill="#FE9A00"/>
<path d="M7.63175 8.34787C8.20644 6.97692 9.78179 6.33222 11.1504 6.90791C12.519 7.48359 13.1626 9.06165 12.5879 10.4326L11.5473 12.9149C10.9726 14.2859 9.39725 14.9306 8.02866 14.3549C6.66006 13.7792 6.01647 12.2012 6.59117 10.8302L7.63175 8.34787Z" fill="#FE7302"/>
<path d="M32.0141 1.57606C31.4654 0.267046 29.9612 -0.348522 28.6544 0.201154C27.3476 0.75083 26.7331 2.2576 27.2819 3.56661L27.5269 4.15126C28.0757 5.46028 29.5799 6.07584 30.8866 5.52617C32.1934 4.97649 32.8079 3.46972 32.2592 2.16071L32.0141 1.57606Z" fill="#FE7302"/>
<path d="M16.0916 28.7596C16.3829 28.4222 16.8924 28.3852 17.2292 28.677L22.2014 32.9847C22.4561 33.2054 22.547 33.5615 22.4295 33.8776C22.3119 34.1937 22.0106 34.4034 21.6738 34.4034H15.089C14.6437 34.4034 14.2827 34.0418 14.2827 33.5957C14.2827 33.1497 14.6437 32.788 15.089 32.788H19.5087L16.1741 29.8991C15.8373 29.6073 15.8004 29.097 16.0916 28.7596Z" fill="black"/>
<path d="M32.0949 28.7596C31.8036 28.4222 31.2942 28.3852 30.9573 28.677L25.9851 32.9847C25.7304 33.2054 25.6395 33.5615 25.7571 33.8776C25.8746 34.1937 26.1759 34.4034 26.5127 34.4034H33.0975C33.5428 34.4034 33.9038 34.0418 33.9038 33.5957C33.9038 33.1497 33.5428 32.788 33.0975 32.788H28.6778L32.0125 29.8991C32.3493 29.6073 32.3862 29.097 32.0949 28.7596Z" fill="black"/>
</svg>
