<svg width="48" height="48" viewBox="0 0 48 48" fill="none" xmlns="http://www.w3.org/2000/svg">
<path d="M3.41125 32.2355C-1.13709 27.6872 -1.13708 20.3128 3.41126 15.7645L15.7645 3.41125C20.3128 -1.13709 27.6872 -1.13708 32.2355 3.41126L44.5887 15.7645C49.1371 20.3128 49.1371 27.6872 44.5887 32.2355L32.2355 44.5887C27.6872 49.1371 20.3128 49.1371 15.7645 44.5887L3.41125 32.2355Z" fill="#75ABF2"/>
<g opacity="0.6">
<path d="M14.8159 18.6C17.034 18.6 18.832 20.3981 18.832 22.6162C18.832 24.8342 17.034 26.6323 14.8159 26.6323C12.5979 26.6323 10.7998 24.8342 10.7998 22.6162C10.7998 20.3981 12.5979 18.6 14.8159 18.6Z" fill="#006FFF"/>
<path d="M38.5014 18.6C40.7194 18.6 42.5175 20.3981 42.5175 22.6162C42.5175 24.8342 40.7194 26.6323 38.5014 26.6323C36.2833 26.6323 34.4853 24.8342 34.4853 22.6162C34.4853 20.3981 36.2833 18.6 38.5014 18.6Z" fill="#006FFF"/>
</g>
<path d="M17.9327 19.8665C17.9327 20.6643 18.616 21.311 19.4588 21.311C20.3016 21.311 20.9849 20.6643 20.9849 19.8665V19.4221H22.1588V19.8665C22.1588 21.2779 20.95 22.4221 19.4588 22.4221C17.9676 22.4221 16.7588 21.2779 16.7588 19.8665V19.4221H17.9327V19.8665Z" fill="black"/>
<path d="M32.3331 19.8665C32.3331 20.6643 33.0163 21.311 33.8592 21.311C34.702 21.311 35.3853 20.6643 35.3853 19.8665V19.4221H36.5592V19.8665C36.5592 21.2779 35.3503 22.4221 33.8592 22.4221C32.368 22.4221 31.1592 21.2779 31.1592 19.8665V19.4221H32.3331V19.8665Z" fill="black"/>
</svg>
