<svg width="48" height="49" viewBox="0 0 48 49" fill="none" xmlns="http://www.w3.org/2000/svg">
<path d="M27.9391 0.00852745C30.5387 0.163716 32.5203 2.3969 32.3651 4.99649C32.333 5.53362 32.2118 6.0442 32.0174 6.51517C32.0474 6.52822 32.0773 6.54161 32.1073 6.5548C32.9759 5.07203 34.6269 4.11928 36.4598 4.2287C39.0594 4.38389 41.041 6.61708 40.8858 9.21666C40.8163 10.3816 40.3291 11.422 39.579 12.202C40.3234 11.8017 41.1845 11.5964 42.0901 11.6504C44.6897 11.8056 46.6713 14.0388 46.5161 16.6384C46.4039 18.518 45.2051 20.074 43.5671 20.7334C43.5751 20.7723 43.583 20.8114 43.5908 20.8504C46.1779 21.0185 48.1462 23.2454 47.9915 25.8365C47.8401 28.3726 45.7111 30.3199 43.1935 30.2696C43.1466 30.4324 43.0975 30.5943 43.0466 30.7554C44.5517 31.6178 45.5226 33.281 45.4122 35.13C45.257 37.7296 43.0238 39.7112 40.4242 39.556C39.5814 39.5057 38.8038 39.2367 38.1426 38.8079C38.0378 38.9126 37.932 39.0162 37.8249 39.1185C38.1655 39.8211 38.3364 40.618 38.2866 41.4529C38.1314 44.0525 35.8982 46.034 33.2986 45.8788C31.7818 45.7883 30.4757 44.9901 29.6814 43.8246C29.5766 43.8553 29.4717 43.8856 29.3663 43.9145C29.3656 43.9286 29.3652 43.9428 29.3644 43.9569C29.2092 46.5565 26.976 48.5381 24.3764 48.3829C22.0457 48.2438 20.2119 46.4342 19.9694 44.1879C19.8381 44.1601 19.7074 44.1311 19.5772 44.1009C18.7827 45.8009 17.0098 46.9309 15.0227 46.8123C12.4231 46.6571 10.4416 44.4239 10.5968 41.8243C10.6398 41.1035 10.8427 40.4304 11.1688 39.837C11.1303 39.8039 11.0917 39.7708 11.0535 39.7375C10.1951 40.3737 9.11724 40.7238 7.96727 40.6551C5.36768 40.4999 3.38611 38.2667 3.5413 35.6671C3.63222 34.1441 4.43639 32.8333 5.60963 32.0399C5.59648 32.0066 5.58378 31.9731 5.5708 31.9397C5.20403 32.0071 4.82341 32.0322 4.4345 32.009C1.83491 31.8538 -0.146661 29.6206 0.00852745 27.021C0.150568 24.6417 2.03344 22.7803 4.34471 22.6009C4.3479 22.5713 4.35097 22.5418 4.35429 22.5122C2.0786 22.0609 0.428387 19.9879 0.570515 17.6071C0.725704 15.0075 2.95889 13.0259 5.55848 13.1811C5.99115 13.2069 6.40666 13.2904 6.79809 13.4235C6.07266 12.538 5.66552 11.3879 5.73912 10.1552C5.8943 7.5556 8.12749 5.57403 10.7271 5.72922C11.8865 5.79843 12.9227 6.28135 13.7015 7.02544C13.5081 6.46087 13.4191 5.85 13.4569 5.21736C13.6121 2.61777 15.8453 0.636198 18.4449 0.791387C20.7504 0.929021 22.5696 2.70116 22.8434 4.91376C22.8777 4.91163 22.912 4.90966 22.9463 4.9077C22.9401 4.75161 22.9416 4.59374 22.9511 4.4345C23.1063 1.83491 25.3395 -0.146661 27.9391 0.00852745Z" fill="#FF55C9"/>
<ellipse cx="36.0969" cy="22.5596" rx="4.21013" ry="4.21013" fill="#E30188"/>
<ellipse cx="11.5094" cy="23.2332" rx="4.21013" ry="4.21013" fill="#E30188"/>
<path d="M29.7334 23.1034C25.4309 23.9213 22.1067 24.0875 17.7104 23.7549C16.6375 23.6737 15.6591 24.3828 15.7227 25.4317C15.8684 27.8377 17.1814 31.6785 24.2071 31.0872C31.1757 30.5006 32.0212 26.7649 31.8714 24.4934C31.8039 23.4696 30.7648 22.9074 29.7334 23.1034Z" fill="#AA047E"/>
<circle cx="30.8576" cy="17.6568" r="4.02264" fill="white"/>
<circle cx="30.858" cy="17.6568" r="2.97326" fill="#3B3A40"/>
<circle cx="31.9076" cy="16.2577" r="1.57408" fill="white"/>
<ellipse cx="29.6329" cy="18.8812" rx="1.04938" ry="1.04938" fill="white"/>
<path opacity="0.6" d="M25.1057 26.0961C27.314 26.0961 29.3318 26.8672 30.8758 28.1402C29.8783 29.5503 27.885 30.7764 24.0591 31.0887C21.0016 31.3382 19.0187 30.7791 17.7402 29.8746C19.309 27.5998 22.0217 26.0961 25.1057 26.0961Z" fill="#FF65AC"/>
<circle cx="16.3737" cy="18.6672" r="4.02264" fill="white"/>
<circle cx="16.3736" cy="18.6672" r="2.97326" fill="#3B3A40"/>
<circle cx="17.7728" cy="17.268" r="1.57408" fill="white"/>
<ellipse cx="15.4991" cy="19.8916" rx="1.04938" ry="1.04938" fill="white"/>
<path d="M18.0653 30.1127C18.0242 29.6471 17.8789 27.1917 19.4625 27.9136C21.2095 28.7102 20.2793 38.4075 19.8145 39.6319C18.6655 42.6313 15.7901 45.205 11.7396 45.184C10.8937 44.2801 10.4057 43.0491 10.4831 41.7208C10.523 41.036 10.7093 40.3941 11.0097 39.823C11.6581 39.3085 12.2313 38.7219 12.6507 38.058C14.7494 34.7351 13.1753 29.0508 14.3995 28.4385C15.3369 27.9699 15.7616 29.4491 15.9092 30.1683C15.8199 29.5168 15.7604 28.2191 16.6733 28.0885C17.7641 27.9327 18.0221 29.7211 18.0653 30.1127Z" fill="#FFA9D8"/>
<path d="M31.0805 29.7611C31.0993 29.0272 31.2571 27.4962 32.2623 27.7925C33.575 28.18 33.0259 34.0521 35.6765 36.9538C36.7443 38.1228 38.3722 38.8739 39.9353 39.3549C39.2718 39.2503 38.6573 39.0107 38.1193 38.6662C38.0143 38.7705 37.9082 38.8737 37.8009 38.9757C38.1441 39.6742 38.3173 40.4669 38.269 41.2978C38.212 42.277 37.8555 43.1686 37.2937 43.8907C33.5516 44.3575 30.4859 42.3903 28.9018 39.7638C28.2286 38.6397 25.6065 29.2582 27.1861 28.1668C28.6182 27.1775 28.907 29.6204 28.9485 30.0857C28.9221 29.6928 28.8612 27.8866 29.9625 27.8481C30.8842 27.816 31.0539 29.1041 31.0805 29.7611Z" fill="#FFA9D8"/>
</svg>
