<svg width="36" height="36" viewBox="0 0 36 36" fill="none" xmlns="http://www.w3.org/2000/svg">
<path d="M0 8C0 3.58172 3.58172 0 8 0H28C32.4183 0 36 3.58172 36 8V28C36 32.4183 32.4183 36 28 36H8C3.58172 36 0 32.4183 0 28V8Z" fill="#9C5CFF"/>
<path d="M17.5581 11.7246C17.8022 11.4805 18.1978 11.4805 18.4419 11.7246L24.2752 17.5579C24.5193 17.802 24.5193 18.1976 24.2752 18.4417L18.4419 24.275C18.1978 24.5191 17.8022 24.5191 17.5581 24.275C17.314 24.0309 17.314 23.6353 17.5581 23.3912L22.3246 18.6248H12.1667C11.8215 18.6248 11.5417 18.345 11.5417 17.9998C11.5417 17.6546 11.8215 17.3748 12.1667 17.3748H22.3246L17.5581 12.6084C17.314 12.3643 17.314 11.9686 17.5581 11.7246Z" fill="#FAFAFA"/>
</svg>
