<svg width="48" height="48" viewBox="0 0 48 48" fill="none" xmlns="http://www.w3.org/2000/svg">
<rect width="48" height="48" rx="12" fill="#FEF1F8"/>
<path d="M36.8663 35.5C36.7785 35.652 36.6522 35.7783 36.5001 35.8661C36.3481 35.9538 36.1756 36 36 36H12C11.8246 35.9998 11.6522 35.9535 11.5004 35.8656C11.3485 35.7778 11.2224 35.6515 11.1348 35.4995C11.0471 35.3475 11.001 35.1752 11.001 34.9997C11.0011 34.8243 11.0473 34.6519 11.135 34.5C13.0388 31.2087 15.9725 28.8487 19.3963 27.73C17.7027 26.7218 16.3869 25.1856 15.651 23.3572C14.915 21.5289 14.7996 19.5095 15.3224 17.6092C15.8453 15.7089 16.9774 14.0327 18.545 12.8381C20.1127 11.6436 22.0291 10.9966 24 10.9966C25.9709 10.9966 27.8874 11.6436 29.455 12.8381C31.0226 14.0327 32.1548 15.7089 32.6776 17.6092C33.2004 19.5095 33.085 21.5289 32.349 23.3572C31.6131 25.1856 30.2973 26.7218 28.6038 27.73C32.0275 28.8487 34.9613 31.2087 36.865 34.5C36.953 34.6519 36.9994 34.8243 36.9996 34.9998C36.9998 35.1754 36.9538 35.3479 36.8663 35.5Z" fill="#F93B93"/>
</svg>
