<svg width="48" height="48" viewBox="0 0 48 48" fill="none" xmlns="http://www.w3.org/2000/svg">
<rect width="48" height="48" rx="12" fill="#EFFEF5"/>
<g opacity="0.5">
<path d="M17.7137 15.7732L14.63 18.2401C13.955 18.7801 13.4263 19.464 13.0738 20.2299H34.0189C33.6708 19.4657 33.1476 18.7821 32.4786 18.2405L29.4307 15.7732H17.7137Z" fill="#19CE68"/>
<path fill-rule="evenodd" clip-rule="evenodd" d="M34.5125 22.5039C34.5125 22.4313 34.5111 22.359 34.5082 22.2868H12.5764C12.573 22.3654 12.5713 22.4443 12.5713 22.5234V31.2003H25.2341C25.3867 30.9938 25.5569 30.7955 25.7452 30.6072L28.7772 27.5753C30.3448 26.0077 32.6089 25.687 34.5125 26.4631V22.5039ZM24.5704 25.7151V24.001C24.5704 23.4329 24.1099 22.9725 23.5419 22.9725C22.9739 22.9725 22.5134 23.4329 22.5134 24.001V25.7151H20.7993C20.2312 25.7151 19.7708 26.1756 19.7708 26.7436C19.7708 27.3116 20.2312 27.772 20.7993 27.772H22.5134V29.4862C22.5134 30.0542 22.9739 30.5147 23.5419 30.5147C24.1099 30.5147 24.5704 30.0542 24.5704 29.4862V27.772H26.2846C26.8526 27.772 27.3131 27.3116 27.3131 26.7436C27.3131 26.1756 26.8526 25.7151 26.2846 25.7151H24.5704Z" fill="#19CE68"/>
<path d="M24.3275 33.2573C24.0237 34.7948 24.4177 36.4418 25.4407 37.714H19.3689C18.5857 37.714 18.1941 37.714 17.8229 37.6631C16.7218 37.5119 15.6925 37.0299 14.8715 36.2808C14.5947 36.0282 14.344 35.7274 13.8427 35.1257C13.3807 34.5713 13.0362 33.9357 12.8232 33.2573H24.3275Z" fill="#19CE68"/>
</g>
<path opacity="0.5" d="M15.4198 11.1322C15.3154 11.3842 15.3154 11.7037 15.3154 12.3426C15.3154 12.9816 15.3154 13.301 15.4198 13.553C15.559 13.889 15.826 14.156 16.162 14.2952C16.414 14.3996 16.7335 14.3996 17.3724 14.3996H19.4294H27.6574H29.7144C30.3533 14.3996 30.6728 14.3996 30.9248 14.2952C31.2608 14.156 31.5278 13.889 31.667 13.553C31.7714 13.301 31.7714 12.9816 31.7714 12.3426C31.7714 11.7037 31.7714 11.3842 31.667 11.1322C31.5278 10.7962 31.2608 10.5292 30.9248 10.39C30.6728 10.2856 30.3533 10.2856 29.7144 10.2856H17.3724C16.7335 10.2856 16.414 10.2856 16.162 10.39C15.826 10.5292 15.559 10.7962 15.4198 11.1322Z" fill="#19CE68"/>
<path d="M29.5301 29.7318L30.232 29.0298C31.488 27.774 33.5666 27.8164 34.8748 29.1246C36.1831 30.4328 36.2255 32.5114 34.9696 33.7673L34.2676 34.4693C34.2085 34.3191 34.1328 34.1451 34.0368 33.9521C33.7266 33.3284 33.2053 32.5092 32.3478 31.6517C31.4902 30.7941 30.671 30.2728 30.0472 29.9625C29.8542 29.8665 29.6803 29.7909 29.5301 29.7318Z" fill="#19CE68"/>
<path d="M27.8486 31.4132L27.2 32.0618C25.9441 33.3177 25.9865 35.3963 27.2948 36.7045C28.603 38.0128 30.6817 38.0552 31.9376 36.7993L32.586 36.1509L32.4493 35.5066L32.4453 35.4912C32.4396 35.4702 32.4283 35.431 32.4096 35.3756C32.3722 35.2649 32.3054 35.09 32.1951 34.8682C31.975 34.4257 31.5799 33.7927 30.8933 33.1062C30.2067 32.4196 29.5736 32.0244 29.131 31.8042C28.9092 31.6939 28.7343 31.627 28.6235 31.5896C28.5681 31.5709 28.5289 31.5596 28.5079 31.5539L28.4924 31.5499L27.8486 31.4132Z" fill="#19CE68"/>
<path d="M17.4618 15.7732L14.3781 18.2401C13.7031 18.7801 13.1744 19.464 12.8219 20.2299H33.7671C33.4189 19.4657 32.8957 18.7821 32.2267 18.2405L29.1788 15.7732H17.4618Z" fill="#19CE68"/>
<path d="M24.0756 33.2573C23.7718 34.7948 24.1658 36.4418 25.1888 37.714H19.117C18.3338 37.714 17.9422 37.714 17.571 37.6631C16.4699 37.5119 15.4407 37.0299 14.6196 36.2808C14.3429 36.0282 14.0922 35.7274 13.5908 35.1257C13.1288 34.5713 12.7843 33.9357 12.5713 33.2573H24.0756Z" fill="#19CE68"/>
</svg>
