<svg width="48" height="48" viewBox="0 0 48 48" fill="none" xmlns="http://www.w3.org/2000/svg">
<path d="M48 24C48 37.2548 37.2548 48 24 48C10.7452 48 0 37.2548 0 24C0 10.7452 10.7452 0 24 0C37.2548 0 48 10.7452 48 24Z" fill="#F3BCE5"/>
<g opacity="0.6">
<path d="M10.7863 20.764C13.7649 20.764 16.1796 23.1787 16.1796 26.1573C16.1796 29.1359 13.7649 31.5506 10.7863 31.5506C7.80771 31.5506 5.39307 29.1359 5.39307 26.1573C5.39307 23.1787 7.80771 20.764 10.7863 20.764Z" fill="#EA73E0"/>
<path d="M37.2133 20.764C40.1919 20.764 42.6066 23.1787 42.6066 26.1573C42.6066 29.1359 40.1919 31.5506 37.2133 31.5506C34.2347 31.5506 31.82 29.1359 31.82 26.1573C31.82 23.1787 34.2347 20.764 37.2133 20.764Z" fill="#EA73E0"/>
</g>
<path d="M13.3483 17.5281C13.3483 18.4961 14.1331 19.2809 15.1011 19.2809C16.0692 19.2809 16.8539 18.4961 16.8539 17.5281V16.9888H18.2022V17.5281C18.2022 19.2408 16.8138 20.6292 15.1011 20.6292C13.3884 20.6292 12 19.2408 12 17.5281V16.9888H13.3483V17.5281Z" fill="black"/>
<path d="M31.1462 17.5281C31.1462 18.4961 31.9309 19.2809 32.899 19.2809C33.867 19.2809 34.6518 18.4961 34.6518 17.5281V16.9888H36.0001V17.5281C36.0001 19.2408 34.6117 20.6292 32.899 20.6292C31.1863 20.6292 29.7979 19.2408 29.7979 17.5281V16.9888H31.1462V17.5281Z" fill="black"/>
<path d="M14.0891 24.0381C14.5814 23.8779 15.0286 24.2324 15.1389 24.7041C15.4972 26.2399 16.4822 27.7377 18.0637 28.8789C19.6451 30.0199 21.6756 30.6925 23.8225 30.7373C25.9691 30.782 28.0414 30.1951 29.6945 29.1152C31.3489 28.0344 32.4275 26.5665 32.8762 25.0332C33.0088 24.5803 33.4541 24.2654 33.9191 24.4248L33.9641 24.4424L34.0061 24.4599C34.4004 24.647 34.5805 25.117 34.4963 25.539L34.4748 25.6259C33.8751 27.6754 32.484 29.4795 30.5422 30.748C28.601 32.0161 26.2204 32.6775 23.7912 32.6269C21.3619 32.5763 19.0201 31.817 17.1516 30.4687C15.2824 29.12 13.9945 27.2584 13.5109 25.1855C13.4029 24.7219 13.6228 24.1901 14.0891 24.0381Z" fill="black"/>
</svg>
