<svg width="48" height="48" viewBox="0 0 48 48" fill="none" xmlns="http://www.w3.org/2000/svg">
<path d="M26.6588 9.41489C31.5427 4.53654 39.4611 4.54325 44.3408 9.42583C49.2206 14.3085 49.2204 22.2247 44.3364 27.1031L32.8414 38.5852C30.4023 41.0215 27.2066 42.2393 24.0103 42.24C24.0068 42.24 24.0033 42.24 23.9998 42.24C23.9964 42.24 23.9929 42.24 23.9895 42.24C20.7933 42.2393 17.5975 41.0214 15.1585 38.5852L3.66343 27.1031C-1.22041 22.2247 -1.22047 14.3084 3.65922 9.42583C8.53894 4.54326 16.4573 4.53653 21.3413 9.41489L24 12.0706L26.6588 9.41489Z" fill="#FF4646"/>
<ellipse cx="12.5009" cy="23.8596" rx="3.664" ry="3.66302" fill="#ED1515"/>
<ellipse cx="35.1311" cy="24.0751" rx="3.44847" ry="3.44755" fill="#ED1515"/>
<path d="M20.2782 21.5601C20.7053 21.4726 21.121 21.756 21.2067 22.1929C21.3474 22.911 21.7227 23.5588 22.2709 24.0299C22.8192 24.501 23.5078 24.7673 24.2236 24.785C24.9394 24.8028 25.6399 24.571 26.2099 24.1276C26.7798 23.6843 27.1853 23.0558 27.3599 22.3455C27.4661 21.9134 27.8947 21.651 28.3171 21.7595C28.7395 21.8681 28.9961 22.3068 28.8899 22.7389C28.6281 23.8045 28.0197 24.7472 27.1648 25.4123C26.3098 26.0773 25.259 26.4252 24.1853 26.3986C23.1116 26.3719 22.0786 25.9723 21.2562 25.2657C20.4339 24.5591 19.8707 23.5871 19.6597 22.5099C19.5742 22.073 19.8512 21.6477 20.2782 21.5601Z" fill="black"/>
<path d="M13.3889 18.6C13.6793 18.6 13.9147 18.8408 13.9147 19.1379C13.9147 20.1034 14.6798 20.8861 15.6237 20.8861C16.5675 20.8861 17.3327 20.1034 17.3327 19.1379C17.3327 18.8408 17.5681 18.6 17.8585 18.6H18.1214C18.4119 18.6 18.6473 18.8408 18.6473 19.1379C18.6473 20.8461 17.2936 22.231 15.6237 22.231C13.9538 22.231 12.6001 20.8461 12.6001 19.1379C12.6001 18.8408 12.8355 18.6 13.1259 18.6H13.3889Z" fill="black"/>
<path d="M30.7417 18.6C31.0321 18.6 31.2675 18.8408 31.2675 19.1379C31.2675 20.1034 32.0326 20.8861 32.9765 20.8861C33.9203 20.8861 34.6855 20.1034 34.6855 19.1379C34.6855 18.8408 34.9209 18.6 35.2113 18.6H35.4743C35.7647 18.6 36.0001 18.8408 36.0001 19.1379C36.0001 20.8461 34.6464 22.231 32.9765 22.231C31.3066 22.231 29.9529 20.8461 29.9529 19.1379C29.9529 18.8408 30.1883 18.6 30.4787 18.6H30.7417Z" fill="black"/>
</svg>
