<svg width="48" height="48" viewBox="0 0 48 48" fill="none" xmlns="http://www.w3.org/2000/svg">
<rect width="48" height="48" rx="12" fill="#F7F7F8"/>
<path opacity="0.5" d="M26.1653 10.905C25.6873 10.0786 24.7939 9.52271 23.7706 9.52271C22.7474 9.52271 21.854 10.0786 21.376 10.905L26.1653 10.905Z" fill="#5F6885"/>
<path fill-rule="evenodd" clip-rule="evenodd" d="M33.4472 17.8146V28.7084C33.4472 29.7598 33.0061 30.7629 32.2313 31.4737C30.1115 33.4184 27.4885 34.5016 24.8081 34.7233V36.1252C24.8081 36.6976 24.344 37.1616 23.7715 37.1616C23.1989 37.1616 22.7348 36.6976 22.7348 36.1252V34.7233C20.0544 34.5016 17.4315 33.4184 15.3116 31.4737C14.5368 30.7629 14.0957 29.7598 14.0957 28.7084V17.8146C14.0957 15.2088 14.0957 13.9059 14.9054 13.0964C15.7151 12.2869 17.0183 12.2869 19.6247 12.2869H27.9182C30.5246 12.2869 31.8278 12.2869 32.6375 13.0964C33.4472 13.9059 33.4472 15.2088 33.4472 17.8146ZM23.7715 24.7241C25.2983 24.7241 26.536 23.4352 26.536 21.8451C26.536 20.8502 25.4537 19.5224 24.6435 18.6677C24.1639 18.1618 23.3791 18.1618 22.8994 18.6677C22.0892 19.5224 21.007 20.8502 21.007 21.8451C21.007 23.4352 22.2447 24.7241 23.7715 24.7241ZM19.9703 28.87C19.9703 28.2976 20.4344 27.8336 21.007 27.8336H26.536C27.1085 27.8336 27.5727 28.2976 27.5727 28.87C27.5727 29.4424 27.1085 29.9065 26.536 29.9065H21.007C20.4344 29.9065 19.9703 29.4424 19.9703 28.87Z" fill="#5F6885"/>
<path d="M36.9653 28.9356C37.1835 29.4847 37.9666 29.4847 38.1848 28.9356L38.3976 28.4001C38.4642 28.2325 38.598 28.0998 38.7669 28.0336L39.3064 27.8225C39.8597 27.6059 39.8597 26.8287 39.3064 26.6121L38.7669 26.401C38.598 26.3348 38.4642 26.2021 38.3976 26.0345L38.1848 25.499C37.9666 24.9499 37.1835 24.9499 36.9653 25.499L36.7525 26.0345C36.6859 26.2021 36.5521 26.3348 36.3832 26.401L35.8437 26.6121C35.2904 26.8287 35.2904 27.6059 35.8437 27.8225L36.3832 28.0336C36.5521 28.0998 36.6859 28.2325 36.7525 28.4001L36.9653 28.9356Z" fill="#5F6885"/>
<path d="M9.53656 17.9426C9.75479 18.4918 10.5379 18.4918 10.7561 17.9426L10.9689 17.4072C11.0355 17.2396 11.1692 17.1068 11.3382 17.0407L11.8777 16.8295C12.431 16.613 12.431 15.8358 11.8777 15.6192L11.3382 15.408C11.1692 15.3419 11.0355 15.2092 10.9689 15.0415L10.7561 14.5061C10.5379 13.957 9.75479 13.957 9.53656 14.5061L9.32378 15.0415C9.25716 15.2092 9.12343 15.3419 8.9545 15.408L8.415 15.6192C7.86167 15.8358 7.86167 16.613 8.415 16.8295L8.9545 17.0407C9.12343 17.1068 9.25716 17.2396 9.32378 17.4072L9.53656 17.9426Z" fill="#5F6885"/>
<path opacity="0.5" d="M31.4188 39.5879C31.6371 40.137 32.4202 40.137 32.6384 39.5879L33.222 38.1194C33.2886 37.9517 33.4223 37.819 33.5912 37.7529L35.0709 37.1737C35.6243 36.9572 35.6243 36.18 35.0709 35.9634L33.5912 35.3842C33.4223 35.3181 33.2886 35.1854 33.222 35.0177L32.6384 33.5492C32.4202 33.0001 31.6371 33.0001 31.4188 33.5492L30.8352 35.0177C30.7686 35.1854 30.6349 35.3181 30.466 35.3842L28.9863 35.9634C28.433 36.18 28.433 36.9572 28.9863 37.1737L30.466 37.7529C30.6349 37.819 30.7686 37.9517 30.8352 38.1194L31.4188 39.5879Z" fill="#5F6885"/>
<rect opacity="0.3" x="18.667" y="17.249" width="10.6667" height="13.7111" fill="#5F6885"/>
</svg>
