<svg width="48" height="48" viewBox="0 0 48 48" fill="none" xmlns="http://www.w3.org/2000/svg">
<path d="M42.9215 20.155L36.3235 22.2261C36.0946 22.298 35.8846 22.0723 35.9714 21.8479L38.0781 16.4048C39.7041 12.2036 35.2777 8.2219 31.2971 10.305L26.3851 12.8754C26.155 12.9958 25.897 12.7712 25.983 12.5254L28.4018 5.61385C29.6005 2.1888 26.6034 -1.02991 23.2437 0.311502C15.8843 3.24996 5.45567 8.85956 1.27678 18.0951C-5.48625 33.0418 16.1023 53.6986 31.1719 46.5351C40.7883 41.9638 45.5885 31.6455 47.8034 24.7765C48.7809 21.7447 45.9505 19.2042 42.9215 20.155Z" fill="#6F7DFF"/>
<ellipse cx="29.1281" cy="21.4475" rx="3.4343" ry="3.44755" fill="#5F00ED"/>
<ellipse cx="8.21457" cy="23.2475" rx="3.4343" ry="3.44755" fill="#5F00ED"/>
<ellipse cx="21.3037" cy="18.96" rx="3.57615" ry="4.74" fill="white"/>
<ellipse cx="12.7309" cy="18.96" rx="3.57615" ry="4.74" fill="white"/>
<path d="M21.3034 14.1989C21.9628 14.1989 22.5802 14.4362 23.1106 14.8487C23.1517 15.1498 23.1736 15.4672 23.1736 15.7997C23.1736 18.4176 21.5722 20.54 19.5972 20.54C18.9422 20.5399 18.329 20.3058 17.8011 19.8984C17.753 19.5886 17.7276 19.2678 17.7275 18.9392C17.7275 16.3215 19.3285 14.1991 21.3034 14.1989Z" fill="black"/>
<path d="M12.7316 14.1989C13.391 14.1989 14.0084 14.4362 14.5388 14.8487C14.5799 15.1498 14.6013 15.4672 14.6013 15.7997C14.6013 18.4175 13.0004 20.5399 11.0254 20.54C10.3702 20.54 9.7568 20.3055 9.2287 19.8978C9.1807 19.5881 9.15576 19.2671 9.15576 18.9386C9.15588 16.321 10.7568 14.1991 12.7316 14.1989Z" fill="black"/>
<ellipse cx="22.4584" cy="18.5291" rx="1.00132" ry="1.00545" fill="white"/>
<ellipse cx="13.8856" cy="18.5291" rx="1.00132" ry="1.00545" fill="white"/>
<path d="M24.2002 27.4471C24.2002 26.0519 24.7317 24.931 25.6275 24.1734C26.503 23.4331 27.6532 23.1 28.8159 23.1C29.3108 23.1001 29.7122 23.503 29.7122 24C29.7122 24.497 29.3108 24.8999 28.8159 24.9C27.976 24.9 27.2657 25.1416 26.7823 25.5504C26.3194 25.9419 25.9928 26.5444 25.9928 27.4471C25.9928 27.9441 25.5915 28.3471 25.0965 28.3471C24.6015 28.3471 24.2002 27.9441 24.2002 27.4471Z" fill="black"/>
</svg>
