<svg width="16" height="16" viewBox="0 0 16 16" fill="none" xmlns="http://www.w3.org/2000/svg">
<path d="M8 0.5C12.1421 0.5 15.5 3.85786 15.5 8C15.5 12.1421 12.1421 15.5 8 15.5C3.85786 15.5 0.5 12.1421 0.5 8C0.5 3.85786 3.85786 0.5 8 0.5Z" fill="#7B2AF3" stroke="#CFB0FF"/>
<path d="M10.3672 5.32739C10.6982 5.00195 11.2347 5.00195 11.5657 5.32739C11.8967 5.65283 11.8967 6.18035 11.5657 6.50579L7.32778 10.6725C7.16882 10.8288 6.9533 10.9166 6.7285 10.9166C6.50371 10.9166 6.28818 10.8288 6.12923 10.6725L4.43405 9.00582C4.10304 8.68038 4.10304 8.15286 4.43405 7.82742C4.76505 7.50198 5.30159 7.50198 5.63259 7.82742L6.7285 8.90491L10.3672 5.32739Z" fill="#FAFAFA"/>
</svg>
