<svg width="48" height="48" viewBox="0 0 48 48" fill="none" xmlns="http://www.w3.org/2000/svg">
<rect width="48" height="48" rx="12" fill="#F9F5FF"/>
<path opacity="0.5" d="M21.7607 8C22.8872 8 23.8008 8.90969 23.8008 10.0312C23.8006 10.7827 23.3898 11.439 22.7803 11.79V12.1328C24.6215 12.3576 26.3083 13.103 27.6846 14.2158C27.7107 14.1822 27.7395 14.15 27.7705 14.1191L28.6289 13.2646C28.5838 13.0969 28.5596 12.9202 28.5596 12.7383C28.5597 11.6169 29.4724 10.7081 30.5986 10.708C31.725 10.708 32.6386 11.6168 32.6387 12.7383C32.6387 13.8598 31.7251 14.7695 30.5986 14.7695C30.416 14.7695 30.2387 14.745 30.0703 14.7002L29.2119 15.5547C29.1809 15.5855 29.149 15.6146 29.1152 15.6406C29.4084 16.0001 29.6754 16.3812 29.915 16.7803C29.4577 17.0173 29.0282 17.3273 28.6445 17.7109L26.8057 19.5488C26.3091 19.3061 25.7507 19.169 25.1602 19.1689C23.0951 19.1689 21.4209 20.8364 21.4209 22.8926C21.4209 23.4862 21.5613 24.0469 21.8096 24.5449L17.2305 29.125C17.0906 29.2649 16.9639 29.4151 16.8486 29.5723C16.7777 29.5285 16.7054 29.487 16.6357 29.4414L14.7637 31.3516C14.8917 31.6657 14.9619 32.0093 14.9619 32.3691C14.9619 33.8645 13.7449 35.077 12.2432 35.0771C10.7413 35.0771 9.52344 33.8646 9.52344 32.3691C9.52349 30.8738 10.7413 29.6611 12.2432 29.6611C12.6349 29.6612 13.0073 29.7441 13.3438 29.8926L15.0508 28.1514C13.9654 27.0599 13.1386 25.7129 12.6719 24.2129C12.5323 24.2349 12.3889 24.2461 12.2432 24.2461C10.7413 24.2461 9.52344 23.0335 9.52344 21.5381C9.52364 20.0428 10.7414 18.8311 12.2432 18.8311C12.3599 18.8311 12.475 18.8383 12.5879 18.8525C12.9311 17.6265 13.5187 16.5045 14.2949 15.541L13.3047 14.5547C12.9785 14.6926 12.6198 14.7695 12.2432 14.7695C10.7413 14.7695 9.52344 13.5569 9.52344 12.0615C9.52345 10.5661 10.7413 9.35352 12.2432 9.35352C13.7449 9.35368 14.9619 10.5662 14.9619 12.0615C14.9619 12.4367 14.8856 12.7943 14.7471 13.1191L15.7373 14.1045C17.1299 12.9923 18.8522 12.2706 20.7412 12.1006V11.79C20.1317 11.439 19.7219 10.7827 19.7217 10.0312C19.7217 8.90971 20.6344 8.00003 21.7607 8ZM17.6816 21.5381C16.9307 21.5381 16.3223 22.1449 16.3223 22.8926C16.3224 23.6401 16.9308 24.2461 17.6816 24.2461C18.4325 24.2461 19.0409 23.6402 19.041 22.8926C19.041 22.1449 18.4326 21.5381 17.6816 21.5381ZM23.46 22.8945V22.8926C23.46 21.9599 24.2183 21.2033 25.1543 21.2002L23.46 22.8945ZM19.7217 14.7695C18.5953 14.7695 17.6817 15.6783 17.6816 16.7998C17.6816 17.9214 18.5953 18.8311 19.7217 18.8311C20.8479 18.8308 21.7607 17.9212 21.7607 16.7998C21.7607 16.7213 21.7568 16.6435 21.748 16.5674C21.6733 15.9144 21.287 15.3554 20.7412 15.041C20.4413 14.8683 20.093 14.7696 19.7217 14.7695Z" fill="#9C5CFF"/>
<path fill-rule="evenodd" clip-rule="evenodd" d="M19.8688 38.9457L19.3792 39.4353C18.6262 40.1882 17.4055 40.1882 16.6526 39.4353C15.8997 38.6824 15.8997 37.4616 16.6526 36.7087L17.1422 36.2191C17.6944 35.6669 17.9657 34.8936 17.8794 34.1175L17.7661 33.0975C17.6367 31.9333 18.0436 30.7734 18.8719 29.9451L30.2855 18.5315C32.2933 16.5237 35.5486 16.5237 37.5564 18.5315C39.5642 20.5393 39.5642 23.7946 37.5564 25.8024L36.4157 26.9431L34.7559 25.2832C34.382 24.9094 33.7759 24.9094 33.4021 25.2832C33.0283 25.6571 33.0283 26.2632 33.4021 26.637L35.0619 28.2968L32.3321 31.0267L30.6723 29.3668C30.2984 28.993 29.6923 28.993 29.3185 29.3668C28.9447 29.7407 28.9447 30.3468 29.3185 30.7206L30.9783 32.3804L28.236 35.1228L26.5761 33.463C26.2023 33.0891 25.5962 33.0891 25.2223 33.463C24.8485 33.8368 24.8485 34.4429 25.2223 34.8167L26.8822 36.4766L26.1428 37.216C25.3145 38.0443 24.1546 38.4511 22.9904 38.3218L21.9704 38.2084C21.1943 38.1222 20.421 38.3935 19.8688 38.9457ZM32.7192 24.7225C33.093 24.3486 33.093 23.7425 32.7192 23.3687C32.3454 22.9949 31.7393 22.9949 31.3654 23.3687L23.0691 31.665C22.6953 32.0388 22.6953 32.6449 23.0691 33.0188C23.443 33.3926 24.0491 33.3926 24.4229 33.0188L32.7192 24.7225Z" fill="#9C5CFF"/>
</svg>
