<svg width="48" height="48" viewBox="0 0 48 48" fill="none" xmlns="http://www.w3.org/2000/svg">
<path d="M3.41125 32.2356C-1.13709 27.6872 -1.13708 20.3129 3.41126 15.7646L15.7645 3.41132C20.3128 -1.13702 27.6872 -1.13702 32.2355 3.41132L44.5887 15.7646C49.1371 20.3129 49.1371 27.6872 44.5887 32.2356L32.2355 44.5888C27.6872 49.1371 20.3128 49.1371 15.7645 44.5888L3.41125 32.2356Z" fill="#75ABF2"/>
<g opacity="0.6">
<path d="M14.8159 18.6001C17.034 18.6001 18.832 20.3982 18.832 22.6162C18.832 24.8343 17.034 26.6323 14.8159 26.6323C12.5979 26.6323 10.7998 24.8343 10.7998 22.6162C10.7998 20.3982 12.5979 18.6001 14.8159 18.6001Z" fill="#006FFF"/>
<path d="M38.5014 18.6001C40.7194 18.6001 42.5175 20.3982 42.5175 22.6162C42.5175 24.8343 40.7194 26.6323 38.5014 26.6323C36.2833 26.6323 34.4853 24.8343 34.4853 22.6162C34.4853 20.3982 36.2833 18.6001 38.5014 18.6001Z" fill="#006FFF"/>
</g>
<path d="M17.9327 19.8666C17.9327 20.6643 18.616 21.311 19.4588 21.311C20.3016 21.311 20.9849 20.6643 20.9849 19.8666V19.4221H22.1588V19.8666C22.1588 21.278 20.95 22.4221 19.4588 22.4221C17.9676 22.4221 16.7588 21.278 16.7588 19.8666V19.4221H17.9327V19.8666Z" fill="black"/>
<path d="M32.3331 19.8666C32.3331 20.6643 33.0163 21.311 33.8592 21.311C34.702 21.311 35.3853 20.6643 35.3853 19.8666V19.4221H36.5592V19.8666C36.5592 21.278 35.3503 22.4221 33.8592 22.4221C32.368 22.4221 31.1592 21.278 31.1592 19.8666V19.4221H32.3331V19.8666Z" fill="black"/>
<path d="M23.2923 27.3156C23.6517 27.3913 24.0015 27.1462 24.0735 26.7683C24.192 26.1471 24.5077 25.5868 24.9691 25.1793C25.4304 24.7718 26.0098 24.5415 26.6121 24.5261C27.2145 24.5108 27.8039 24.7113 28.2835 25.0948C28.763 25.4783 29.1043 26.0219 29.2512 26.6363C29.3405 27.01 29.7012 27.237 30.0566 27.1431C30.4121 27.0491 30.628 26.6698 30.5386 26.2959C30.3183 25.3743 29.8063 24.5588 29.087 23.9836C28.3676 23.4084 27.4834 23.1075 26.5799 23.1305C25.6765 23.1536 24.8073 23.4992 24.1152 24.1104C23.4232 24.7216 22.9494 25.5622 22.7719 26.494C22.6998 26.872 22.9329 27.2398 23.2923 27.3156Z" fill="black"/>
</svg>
