<svg width="48" height="48" viewBox="0 0 48 48" fill="none" xmlns="http://www.w3.org/2000/svg">
<rect width="48" height="48" rx="12" fill="#F9F5FF"/>
<path d="M16.015 26.4752C16.0184 26.5429 16.008 26.6106 15.9844 26.6742C15.9608 26.7378 15.9245 26.7959 15.8777 26.845C15.8309 26.8941 15.7747 26.9332 15.7123 26.9599C15.65 26.9866 15.5828 27.0003 15.515 27.0002H10C9.77431 27.0005 9.55512 26.9245 9.37811 26.7845C9.20109 26.6445 9.07664 26.4487 9.02501 26.2289C8.99286 26.0786 8.99435 25.9229 9.02935 25.7732C9.06436 25.6234 9.13203 25.4832 9.22751 25.3627C10.1098 24.1927 11.2804 23.2714 12.625 22.6889C12.0347 22.1507 11.5819 21.4788 11.3046 20.7296C11.0273 19.9804 10.9336 19.1756 11.0313 18.3828C11.129 17.5899 11.4152 16.8319 11.8661 16.1724C12.3169 15.5129 12.9192 14.971 13.6225 14.5922C14.3259 14.2133 15.1098 14.0085 15.9085 13.9949C16.7073 13.9812 17.4977 14.1592 18.2135 14.5139C18.9294 14.8686 19.5498 15.3896 20.0229 16.0333C20.4959 16.6771 20.8079 17.4248 20.9325 18.2139C20.9486 18.3201 20.9296 18.4285 20.8784 18.5228C20.8272 18.6172 20.7465 18.6922 20.6488 18.7364C19.2618 19.3777 18.0871 20.4022 17.2634 21.6893C16.4397 22.9763 16.0013 24.4721 16 26.0002C16 26.1602 16 26.3177 16.015 26.4752ZM38.765 25.3614C37.8848 24.1928 36.7169 23.272 35.375 22.6889C35.9654 22.1507 36.4181 21.4788 36.6954 20.7296C36.9727 19.9804 37.0664 19.1756 36.9687 18.3828C36.8711 17.5899 36.5848 16.8319 36.134 16.1724C35.6831 15.5129 35.0808 14.971 34.3775 14.5922C33.6741 14.2133 32.8903 14.0085 32.0915 13.9949C31.2927 13.9812 30.5023 14.1592 29.7865 14.5139C29.0707 14.8686 28.4502 15.3896 27.9772 16.0333C27.5041 16.6771 27.1922 17.4248 27.0675 18.2139C27.0514 18.3201 27.0704 18.4285 27.1216 18.5228C27.1729 18.6172 27.2535 18.6922 27.3513 18.7364C28.7383 19.3777 29.9129 20.4022 30.7366 21.6893C31.5603 22.9763 31.9987 24.4721 32 26.0002C32 26.1602 32 26.3177 31.985 26.4752C31.9816 26.5429 31.992 26.6106 32.0156 26.6742C32.0393 26.7378 32.0755 26.7959 32.1223 26.845C32.1691 26.8941 32.2254 26.9332 32.2877 26.9599C32.3501 26.9866 32.4172 27.0003 32.485 27.0002H38C38.2257 27.0005 38.4449 26.9245 38.6219 26.7845C38.7989 26.6445 38.9234 26.4487 38.975 26.2289C39.0074 26.0783 39.0059 25.9223 38.9706 25.7723C38.9354 25.6223 38.8673 25.482 38.7713 25.3614H38.765ZM27.64 30.7589C28.6357 29.9964 29.3674 28.941 29.7323 27.7411C30.0972 26.5413 30.0769 25.2572 29.6744 24.0694C29.2718 22.8817 28.5071 21.8499 27.4879 21.1191C26.4686 20.3884 25.246 19.9954 23.9919 19.9954C22.7377 19.9954 21.5151 20.3884 20.4959 21.1191C19.4766 21.8499 18.712 22.8817 18.3094 24.0694C17.9068 25.2572 17.8866 26.5413 18.2515 27.7411C18.6164 28.941 19.3481 29.9964 20.3438 30.7589C18.5769 31.5245 17.1016 32.8356 16.1338 34.5002C16.046 34.6522 15.9998 34.8247 15.9998 35.0002C15.9998 35.1758 16.046 35.3483 16.1338 35.5003C16.2216 35.6523 16.3479 35.7785 16.4999 35.8663C16.652 35.9541 16.8245 36.0002 17 36.0002H31C31.1756 36.0002 31.348 35.9541 31.5001 35.8663C31.6521 35.7785 31.7784 35.6523 31.8662 35.5003C31.954 35.3483 32.0002 35.1758 32.0002 35.0002C32.0002 34.8247 31.954 34.6522 31.8663 34.5002C30.8963 32.8345 29.4183 31.5233 27.6488 30.7589H27.64Z" fill="#9C5CFF"/>
</svg>
