<svg width="48" height="48" viewBox="0 0 48 48" fill="none" xmlns="http://www.w3.org/2000/svg">
<path d="M5.2951 10.355C20.1658 8.74081 25.7313 8.70453 40.3469 10.1251C40.3469 10.1251 43.0876 7.11987 44.9283 9.04243C46.769 10.965 43.9455 13.4084 43.9455 13.4084C45.0583 22.8534 44.4778 28.6741 45.0302 38.2577C45.0302 38.2577 48.8202 38.9967 47.8372 41.2602C46.8543 43.5236 43.2321 42.3981 43.2321 42.3981C25.3307 43.9483 19.8241 44.4803 5.42187 42.6689C5.42187 42.6689 2.91074 45.4461 0.878466 43.9653C-1.15381 42.4844 1.66544 39.4479 1.66544 39.4479C0.51417 28.881 0.563674 23.2186 1.59501 13.4658C1.59501 13.4658 -0.982239 11.2865 0.415399 9.27031C1.81304 7.25408 5.2951 10.355 5.2951 10.355Z" fill="#75DFFF"/>
<circle cx="13.3201" cy="26.0282" r="3.65852" transform="rotate(-0.753528 13.3201 26.0282)" fill="#ED1515"/>
<circle cx="35.9175" cy="25.9461" r="3.44331" transform="rotate(-0.753528 35.9175 25.9461)" fill="#ED1515"/>
<path d="M14.0021 21.5354L14.0125 21.6994C14.104 22.5085 14.7855 23.1317 15.604 23.1208C16.4224 23.1097 17.087 22.4686 17.1575 21.6573L17.1637 21.4931C17.16 21.2072 17.385 20.9724 17.6663 20.9686L18.0668 20.9633C18.348 20.9595 18.579 21.1882 18.5827 21.4741C18.6044 23.158 17.2793 24.5409 15.6227 24.5632L15.4681 24.5618C13.933 24.5033 12.687 23.269 12.5892 21.7107L12.5831 21.5543C12.5794 21.2684 12.8044 21.0336 13.0856 21.0299L13.4861 21.0245C13.7674 21.0208 13.9984 21.2495 14.0021 21.5354Z" fill="black"/>
<path d="M32.6022 21.5354L32.6126 21.6994C32.7041 22.5085 33.3856 23.1317 34.2041 23.1208C35.0225 23.1097 35.6871 22.4686 35.7576 21.6573L35.7638 21.4931C35.7601 21.2072 35.9851 20.9724 36.2664 20.9686L36.6669 20.9633C36.9481 20.9595 37.1791 21.1882 37.1828 21.4741C37.2045 23.158 35.8794 24.5409 34.2228 24.5632L34.0682 24.5618C32.5331 24.5033 31.2871 23.269 31.1893 21.7107L31.1832 21.5543C31.1795 21.2684 31.4045 21.0336 31.6857 21.0299L32.0862 21.0245C32.3675 21.0208 32.5985 21.2495 32.6022 21.5354Z" fill="black"/>
<path d="M5.74667 26.1323C5.84435 28.9311 5.59916 31.9419 5.31992 34.305C5.17689 35.5154 3.73193 35.6246 3.42873 34.4441C2.81775 32.0651 2.19569 28.9716 2.10855 25.9949C2.02052 22.9877 2.38275 20.3193 2.77044 18.3929C2.99056 17.299 4.26427 17.2716 4.54715 18.3509C5.07481 20.3641 5.64287 23.158 5.74667 26.1323Z" fill="#B6ECFF"/>
<ellipse cx="25.0054" cy="28.2" rx="3" ry="3.6" fill="black"/>
<path fill-rule="evenodd" clip-rule="evenodd" d="M32.9718 7.60347C32.3803 7.95703 31.624 7.74721 31.2825 7.13483C30.941 6.52244 31.1437 5.73938 31.7351 5.38582L37.4471 1.97153C37.8803 1.7126 38.4214 1.74932 38.8183 2.06458C39.2151 2.37983 39.3894 2.91152 39.26 3.41173L37.6185 9.75402L40.7449 7.88526C41.3364 7.5317 42.0927 7.74152 42.4342 8.3539C42.7757 8.96629 42.573 9.74934 41.9816 10.1029L36.2696 13.5172C35.8364 13.7761 35.2953 13.7394 34.8984 13.4242C34.5016 13.1089 34.3273 12.5772 34.4567 12.077L36.0982 5.73471L32.9718 7.60347Z" fill="#0090FF"/>
<path fill-rule="evenodd" clip-rule="evenodd" d="M26.8674 10.1642C26.2759 9.81067 26.0732 9.02761 26.4147 8.41522C26.7562 7.80284 27.5125 7.59302 28.104 7.94658L30.96 9.65372C31.3932 9.91265 31.633 10.4162 31.5678 10.9297C31.5025 11.4431 31.1449 11.8652 30.6617 11.9993L29.0407 12.449L29.3111 12.6106C29.9026 12.9642 30.1053 13.7472 29.7638 14.3596C29.4223 14.972 28.6659 15.1818 28.0744 14.8282L25.2185 13.1211C24.7853 12.8622 24.5454 12.3586 24.6107 11.8451C24.676 11.3317 25.0336 10.9096 25.5167 10.7755L27.1377 10.3258L26.8674 10.1642Z" fill="#0090FF"/>
<path d="M36.8315 0.941595C37.6958 0.425037 38.7794 0.500909 39.5649 1.12499C40.3424 1.7427 40.6668 2.76484 40.4216 3.71249L39.5128 7.22343L40.1292 6.85546C41.3192 6.14412 42.8214 6.58399 43.4825 7.76952C44.1307 8.93199 43.7615 10.4369 42.5972 11.1328L36.8855 14.5471C36.0212 15.0637 34.9376 14.9878 34.1521 14.3637C33.3745 13.746 33.0496 12.7239 33.2948 11.7762L34.203 8.26523L33.5878 8.63378C33.0867 8.9333 32.5302 9.02745 32.0046 8.94902C32.5774 9.49276 32.8589 10.2886 32.7581 11.0812C32.6377 12.0279 31.9863 12.8403 31.0589 13.1309C31.2015 13.7276 31.1281 14.3768 30.8116 14.9443C30.1505 16.1296 28.6488 16.5695 27.4589 15.8584L24.603 14.151C23.7471 13.6394 23.2966 12.6642 23.42 11.6935C23.5404 10.7471 24.1916 9.93404 25.1187 9.64335C24.9764 9.04688 25.0503 8.39823 25.3665 7.83105C26.0276 6.64551 27.5298 6.20506 28.7198 6.9164L30.3341 7.88144C30.2993 7.82892 30.2656 7.77501 30.2345 7.71913C29.5863 6.55673 29.9551 5.05186 31.1192 4.35585L36.8315 0.941595ZM28.104 7.94648C27.5125 7.59298 26.7562 7.80288 26.4148 8.41523L26.3567 8.53183C26.0998 9.12367 26.3127 9.83274 26.8671 10.1643L27.1378 10.326L25.5165 10.7754C25.0335 10.9095 24.6759 11.3319 24.6107 11.8453L24.6019 11.9414C24.5761 12.4206 24.8124 12.8781 25.2183 13.1209L28.0747 14.8283C28.6292 15.1596 29.3282 14.9959 29.6948 14.4697L29.764 14.3596C30.1054 13.7472 29.9025 12.9641 29.311 12.6105L29.0409 12.4488L30.6616 11.9994C31.1448 11.8654 31.5022 11.4429 31.5675 10.9295C31.6286 10.4482 31.422 9.9754 31.039 9.70488L30.9599 9.6539L28.104 7.94648ZM38.8185 2.06484C38.4217 1.74962 37.8805 1.71283 37.4474 1.97167L31.7351 5.38593L31.629 5.45683C31.1205 5.83639 30.9625 6.56077 31.2827 7.13495C31.6029 7.70883 32.2873 7.92926 32.8589 7.66347L32.972 7.6037L36.098 5.73456L34.4567 12.0768C34.3273 12.577 34.5017 13.1092 34.8985 13.4244C35.2705 13.7198 35.7693 13.7702 36.187 13.5621L36.2696 13.517L41.9814 10.1027C42.536 9.77121 42.7489 9.06228 42.4917 8.47031L42.4343 8.3537C42.0928 7.74142 41.3365 7.532 40.745 7.88554L37.6185 9.7541L39.2597 3.41191C39.381 2.94298 39.2356 2.44637 38.8899 2.12636L38.8185 2.06484Z" fill="white"/>
</svg>
