<svg width="18" height="18" viewBox="0 0 18 18" fill="none" xmlns="http://www.w3.org/2000/svg">
<path fill-rule="evenodd" clip-rule="evenodd" d="M13.5 0C15.9853 0 18 2.01472 18 4.5V13.5C18 15.9853 15.9853 18 13.5 18H4.5C2.01472 18 0 15.9853 0 13.5V4.5C0 2.01472 2.01472 0 4.5 0H13.5ZM11.7905 10.1433C11.5965 10.0994 11.3926 10.1338 11.2244 10.24C10.5564 10.6545 9.78614 10.8743 9 10.8743C8.21386 10.8743 7.44359 10.6545 6.77563 10.24C6.60735 10.1338 6.40353 10.0994 6.20947 10.1433C6.01541 10.1873 5.84616 10.3061 5.73999 10.4744C5.63385 10.6426 5.59941 10.8465 5.64331 11.0405C5.68726 11.2346 5.80608 11.4038 5.97437 11.51C6.882 12.0758 7.93044 12.3757 9 12.3757C10.0696 12.3757 11.118 12.0758 12.0256 11.51C12.1939 11.4038 12.3127 11.2346 12.3567 11.0405C12.4006 10.8465 12.3662 10.6426 12.26 10.4744C12.1538 10.3061 11.9846 10.1873 11.7905 10.1433ZM6.375 6C6.07663 6 5.79057 6.11861 5.57959 6.32959C5.36861 6.54057 5.25 6.82663 5.25 7.125C5.25 7.34745 5.31614 7.56478 5.4397 7.74976C5.56328 7.93472 5.73883 8.07915 5.94434 8.16431C6.1499 8.24946 6.3765 8.27144 6.59473 8.22803C6.81284 8.18458 7.01315 8.07767 7.17041 7.92041C7.32767 7.76315 7.43458 7.56284 7.47803 7.34473C7.52144 7.1265 7.49946 6.8999 7.41431 6.69434C7.32915 6.48883 7.18472 6.31328 6.99976 6.1897C6.81478 6.06614 6.59745 6 6.375 6ZM11.625 6C11.3266 6 11.0406 6.11861 10.8296 6.32959C10.6186 6.54057 10.5 6.82663 10.5 7.125C10.5 7.34745 10.5661 7.56478 10.6897 7.74976C10.8133 7.93472 10.9888 8.07915 11.1943 8.16431C11.3999 8.24946 11.6265 8.27144 11.8447 8.22803C12.0628 8.18458 12.2632 8.07767 12.4204 7.92041C12.5777 7.76315 12.6846 7.56284 12.728 7.34473C12.7714 7.1265 12.7495 6.8999 12.6643 6.69434C12.5792 6.48883 12.4347 6.31328 12.2498 6.1897C12.0648 6.06614 11.8475 6 11.625 6Z" fill="#6D6B76"/>
</svg>
