<svg width="48" height="48" viewBox="0 0 48 48" fill="none" xmlns="http://www.w3.org/2000/svg">
<path d="M27.15 0C28.0613 1.06302e-07 28.8 0.73873 28.8 1.65C28.8 2.56127 28.0613 3.3 27.15 3.3H26.1V6.48076C29.337 6.94377 32.2937 8.27533 34.7268 10.2316L36.8159 8.14248L36.0735 7.4001C35.4292 6.75573 35.4292 5.71095 36.0735 5.0666C36.7179 4.4223 37.7627 4.42229 38.407 5.0666L43.074 9.73359C43.7183 10.3779 43.7183 11.4227 43.074 12.0671C42.4297 12.7114 41.3849 12.7114 40.7405 12.0671L39.9979 11.3247L37.853 13.4692C39.6568 15.8808 40.8649 18.7638 41.2594 21.9H44.7V20.85C44.7 19.9387 45.4387 19.2 46.35 19.2C47.2613 19.2 48 19.9387 48 20.85V27.45C48 28.3613 47.2613 29.1 46.35 29.1C45.4387 29.1 44.7 28.3613 44.7 27.45V26.4H41.2594C40.8512 29.6452 39.5716 32.6189 37.6626 35.0801L39.6999 37.1174L40.4423 36.375C41.0866 35.7306 42.1314 35.7307 42.7758 36.375C43.4201 37.0194 43.4201 38.0641 42.7758 38.7085L38.1088 43.3755C37.4645 44.0197 36.4199 44.0197 35.7756 43.3755C35.1312 42.7311 35.1312 41.6864 35.7756 41.042L36.518 40.2993L34.4807 38.2623C32.0954 40.1125 29.2287 41.3714 26.1 41.8189V44.7H27.15C28.0613 44.7 28.8 45.4387 28.8 46.35C28.8 47.2613 28.0613 48 27.15 48H20.55C19.6387 48 18.9 47.2613 18.9 46.35C18.9 45.4387 19.6387 44.7 20.55 44.7H21.6V41.8942C18.3477 41.5409 15.3575 40.3144 12.8692 38.4533L10.7238 40.5987L11.4662 41.3411C12.1106 41.9855 12.1106 43.0302 11.4662 43.6746C10.8219 44.3189 9.77736 44.3189 9.13301 43.6746L4.46602 39.0076C3.8217 38.3633 3.82171 37.3188 4.46602 36.6744C5.11038 36.0301 6.15515 36.0301 6.79951 36.6744L7.54189 37.4168L9.63164 35.3268C7.61506 32.8187 6.2625 29.7542 5.84063 26.4H3.3V27.45C3.3 28.3613 2.56127 29.1 1.65 29.1C0.73873 29.1 2.65756e-08 28.3613 0 27.45V20.85C1.06302e-07 19.9387 0.73873 19.2 1.65 19.2C2.56127 19.2 3.3 19.9387 3.3 20.85V21.9H5.84063C6.24882 18.6545 7.52843 15.6804 9.4377 13.219L7.24395 11.0253L6.50127 11.7677C5.8569 12.412 4.81212 12.412 4.16777 11.7677C3.52348 11.1233 3.52348 10.0785 4.16777 9.43418L8.83477 4.76719C9.47912 4.12288 10.5239 4.12289 11.1683 4.76719C11.8126 5.41154 11.8126 6.45632 11.1683 7.10068L10.4259 7.84307L12.6196 10.0371C15.1565 8.06945 18.2381 6.77074 21.6 6.40547V3.3H20.55C19.6387 3.3 18.9 2.56127 18.9 1.65C18.9 0.73873 19.6387 2.65756e-08 20.55 0H27.15Z" fill="#02E29B"/>
<ellipse cx="14.3998" cy="27" rx="3.6" ry="3.6" fill="#C972C6"/>
<circle cx="33.6" cy="27" r="3.6" fill="#C972C6"/>
<path d="M17.4807 25.5328C18.8819 24.2111 21.0758 24.2266 22.4582 25.568L22.9674 26.0625C23.5958 26.6722 24.5721 26.7412 25.2801 26.226L26.3805 25.425C28.0778 24.1894 30.4684 24.6625 31.5672 26.4515L31.7113 26.6859C31.8847 26.9683 31.7962 27.3381 31.5139 27.5115C31.2315 27.6849 30.8617 27.5964 30.6883 27.314L30.5441 27.0791C29.8116 25.8866 28.218 25.571 27.0865 26.3947L25.9867 27.1957C24.8066 28.0547 23.1794 27.9397 22.1318 26.9232L21.6221 26.4293C20.7004 25.5351 19.2386 25.5248 18.3045 26.4058L17.2117 27.4365C16.9707 27.6638 16.5907 27.6529 16.3633 27.4119C16.1359 27.1709 16.1469 26.7908 16.3879 26.5635L17.4807 25.5328Z" fill="#3B3A40"/>
<path d="M15.5918 18.1981C15.7837 17.9588 16.1193 17.9326 16.3411 18.1395L19.6165 21.194C19.7843 21.3505 19.8442 21.603 19.7668 21.8271C19.6893 22.0513 19.4908 22.2 19.269 22.2H13.7313C13.438 22.2 13.2002 21.9436 13.2002 21.6273C13.2002 21.311 13.438 21.0546 13.7313 21.0546H17.8428L15.6461 19.0061C15.4242 18.7992 15.3999 18.4373 15.5918 18.1981Z" fill="#3B3A40"/>
<path d="M32.4082 18.1981C32.2163 17.9588 31.8807 17.9326 31.6589 18.1395L28.3835 21.194C28.2157 21.3505 28.1558 21.603 28.2332 21.8271C28.3107 22.0513 28.5092 22.2 28.731 22.2H34.2687C34.562 22.2 34.7998 21.9436 34.7998 21.6273C34.7998 21.311 34.562 21.0546 34.2687 21.0546H30.1572L32.3539 19.0061C32.5758 18.7992 32.6001 18.4373 32.4082 18.1981Z" fill="#3B3A40"/>
</svg>
